<svg width="255" height="70" fill="none" xmlns="http://www.w3.org/2000/svg"><g clip-path="url(#clip0)"><path d="M81.992.3h7.13l8.115 25.257L105.353.3h7.206l-11.226 32.9h-8.116L81.992.3zm55.672 21.135c0 6.97-5.234 12.366-11.605 12.366-3.489 0-5.992-1.274-7.737-3.448v12.142h-6.067V9.668h6.143v2.773c1.745-2.173 4.248-3.447 7.737-3.447 6.295 0 11.529 5.396 11.529 12.44zm-6.144 0c0-3.972-2.806-6.595-6.599-6.595-3.792 0-6.523 2.698-6.523 6.595 0 3.972 2.807 6.595 6.523 6.595 3.793 0 6.599-2.698 6.599-6.595zm22.527-12.216v6.745c-3.186-.375-7.206 1.049-7.206 5.995v11.242h-6.143V9.668h6.143v4.047c1.214-3.222 4.248-4.496 7.206-4.496zm.152 12.216c0-6.97 5.537-12.366 12.515-12.366 6.978 0 12.591 5.396 12.591 12.366S173.692 33.8 166.714 33.8c-6.902 0-12.515-5.396-12.515-12.366zm19.038 0c0-3.822-2.807-6.446-6.447-6.446-3.641 0-6.447 2.698-6.447 6.446 0 3.822 2.806 6.445 6.447 6.445 3.64 0 6.447-2.698 6.447-6.445zm23.967 11.691l-8.646-10.642v10.642h-6.144V.3h6.144v19.71l8.191-10.342h7.358l-9.557 11.617 9.86 11.916h-7.206v-.075zm8.42-3.372c0-2.174 1.82-3.973 4.019-3.973 2.2 0 4.02 1.8 4.02 3.973s-1.82 3.972-4.02 3.972c-2.275.075-4.019-1.724-4.019-3.972zm25.257-20.535v6.745c-3.186-.375-7.206 1.049-7.206 5.995v11.242h-6.144V9.668h6.144v4.047c1.214-3.222 4.248-4.496 7.206-4.496zm24.12.449v23.458h-6.143v-2.623c-1.441 2.099-3.869 3.298-7.054 3.298-5.006 0-8.95-3.448-8.95-9.743V9.668h6.143v13.64c0 3.223 1.972 4.872 4.703 4.872 2.958 0 5.234-1.724 5.234-5.846V9.668h6.067zM101.333 64.529h-3.792V49.165h-6.75v15.364h-3.793V45.642h14.335V64.53zm10.013-2.773c1.365 0 2.502-.6 3.033-1.35l2.883 1.65c-1.29 1.873-3.338 2.923-5.992 2.923-4.627 0-7.509-3.148-7.509-7.12 0-4.047 2.958-7.12 7.205-7.12 4.02 0 6.902 3.148 6.902 7.12 0 .524-.075.974-.151 1.424h-10.316c.531 1.723 2.048 2.473 3.945 2.473zm3.033-5.246c-.455-1.949-1.896-2.698-3.413-2.698-1.896 0-3.185.974-3.565 2.698h6.978zm20.403 1.274c0 4.047-3.034 7.12-6.675 7.12-1.972 0-3.489-.75-4.475-1.949V70h-3.564V51.039h3.564v1.573c.986-1.274 2.428-1.948 4.475-1.948 3.641 0 6.675 3.073 6.675 7.12zm-3.565 0c0-2.249-1.593-3.822-3.792-3.822-2.2 0-3.793 1.573-3.793 3.822 0 2.248 1.593 3.822 3.793 3.822 2.199 0 3.792-1.499 3.792-3.822zm12.667 3.972c1.365 0 2.503-.6 3.034-1.35l2.882 1.65c-1.29 1.873-3.338 2.923-5.992 2.923-4.627 0-7.509-3.148-7.509-7.12 0-4.047 2.958-7.12 7.205-7.12 4.02 0 6.903 3.148 6.903 7.12 0 .524-.076.974-.152 1.424H139.94c.53 1.723 2.047 2.473 3.944 2.473zm3.034-5.246c-.456-1.949-1.897-2.698-3.414-2.698-1.896 0-3.185.974-3.564 2.698h6.978zm14.259 8.019l-5.006-6.146v6.146h-3.565v-13.49h3.565v5.92l4.702-5.92h4.248l-5.537 6.67 5.688 6.82h-4.095zm20.251-6.745c0 4.047-3.034 7.12-6.674 7.12-1.972 0-3.489-.75-4.475-1.949V70h-3.565V51.039h3.565v1.573c.986-1.274 2.427-1.948 4.475-1.948 3.64 0 6.674 3.073 6.674 7.12zm-3.565 0c0-2.249-1.592-3.822-3.792-3.822-2.199 0-3.792 1.573-3.792 3.822 0 2.248 1.593 3.822 3.792 3.822 2.2 0 3.792-1.499 3.792-3.822zm12.59 3.972c1.365 0 2.503-.6 3.034-1.35l2.882 1.65c-1.289 1.873-3.337 2.922-5.992 2.922-4.626 0-7.509-3.147-7.509-7.12 0-4.046 2.958-7.12 7.206-7.12 4.02 0 6.902 3.148 6.902 7.12 0 .525-.076.975-.152 1.425h-10.315c.607 1.723 2.124 2.473 3.944 2.473zm-4.93-13.94c0-.974.834-1.874 1.896-1.874.986 0 1.821.825 1.821 1.874 0 .974-.835 1.798-1.821 1.798-1.062 0-1.896-.824-1.896-1.798zm8.04 8.694c-.455-1.949-1.896-2.698-3.413-2.698-1.896 0-3.186.974-3.565 2.698h6.978zm-2.806-8.694c0-.974.834-1.874 1.896-1.874.986 0 1.82.825 1.82 1.874 0 .974-.834 1.798-1.82 1.798-1.062 0-1.896-.824-1.896-1.798zm7.738 9.968c0-4.047 3.034-7.12 7.205-7.12 2.655 0 5.006 1.424 6.144 3.522l-3.034 1.724c-.531-1.124-1.745-1.799-3.11-1.799-2.124 0-3.641 1.574-3.641 3.673 0 2.173 1.593 3.672 3.641 3.672 1.441 0 2.579-.674 3.186-1.799l3.034 1.724c-1.214 2.099-3.489 3.523-6.22 3.523-4.171.075-7.205-3.073-7.205-7.12zm26.47-3.373h-4.247v10.193h-3.565V54.41h-4.324v-3.37h12.136v3.372zm.304 3.373c0-4.047 3.185-7.12 7.205-7.12s7.282 3.148 7.282 7.12c0 4.047-3.262 7.12-7.282 7.12s-7.205-3.073-7.205-7.12zm10.998 0c0-2.174-1.593-3.748-3.717-3.748-2.048 0-3.716 1.574-3.716 3.748 0 2.173 1.592 3.747 3.716 3.747 2.048 0 3.717-1.574 3.717-3.747zm14.259 6.745l-5.006-6.146v6.146h-3.565v-13.49h3.565v5.92l4.702-5.92h4.248l-5.537 6.67 5.688 6.82h-4.095zM52.563 1.842H13.349C5.992 1.842 0 7.762 0 15.032V53.78c0 7.27 5.992 13.19 13.35 13.19h39.137c7.357 0 13.349-5.92 13.349-13.19V15.033c.076-7.27-5.916-13.191-13.273-13.191z" fill="#043E44"/><path d="M33.297 24.55l-10.012 9.894 10.012 9.893c5.537 5.47 14.487 5.47 20.024 0a13.86 13.86 0 000-19.786c-5.537-5.471-14.487-5.471-20.024 0zM15.17 34.444L5.234 24.55a13.544 13.544 0 00-2.351-1.874V46.21c.834-.524 1.668-1.124 2.35-1.873l9.937-9.893zm14.108 13.865l-10.012-9.893-10.012 9.893c-3.337 3.298-4.627 7.87-3.944 12.216 1.972 2.249 4.854 3.747 8.04 3.747h18.658c2.503-5.246 1.593-11.691-2.73-15.963zM9.254 20.504l10.012 9.893 10.012-9.893c4.323-4.272 5.233-10.718 2.73-15.889H13.35c-3.262 0-6.144 1.424-8.04 3.747-.683 4.272.607 8.844 3.944 12.142z" fill="#fff"/></g><defs><clipPath id="clip0"><path fill="#fff" d="M0 0h255v70H0z"/></clipPath></defs></svg>