<svg width="916" height="207" fill="none" xmlns="http://www.w3.org/2000/svg"><path d="M40.963 154.553l-8.596.869 2.589 25.598-18.816 1.903-6.762-66.859 18.816-1.903 2.627 25.979 9.074-.917 13.323-27.593 19.867-2.01-17.652 34.399 24.605 32.441-21.3 2.154-17.775-24.061zm68.84 19.765c-5.54.56-10.654-.08-15.343-1.922-4.69-1.841-8.513-4.671-11.473-8.489-2.895-3.824-4.604-8.314-5.125-13.472-.515-5.094.262-9.804 2.334-14.131 2.134-4.333 5.286-7.835 9.454-10.508 4.225-2.744 9.14-4.399 14.743-4.965 5.604-.567 10.75.07 15.439 1.912 4.683 1.778 8.472 4.579 11.367 8.403 2.889 3.76 4.595 8.219 5.116 13.377.522 5.157-.253 9.899-2.324 14.226-2.071 4.326-5.219 7.861-9.445 10.604-4.225 2.743-9.139 4.398-14.743 4.965zm-1.459-14.423c3.184-.322 5.685-1.668 7.504-4.039 1.812-2.435 2.522-5.594 2.129-9.478-.386-3.821-1.708-6.711-3.964-8.67-2.257-1.958-4.977-2.777-8.161-2.455-3.184.322-5.685 1.669-7.504 4.04-1.818 2.371-2.534 5.467-2.148 9.287.393 3.884 1.72 6.838 3.984 8.86 2.257 1.959 4.977 2.777 8.16 2.455zm126.661-13.775l2.55 25.215-16.81 1.7-1.082-10.697-32.57 3.294 1.082 10.698-16.905 1.709-2.551-25.215 1.911-.193c3.113-.379 5.107-2.286 5.982-5.719.869-3.497 1.125-8.283.767-14.358l-1.157-18.12 47.852-4.84 3.768 37.25 7.163-.724zm-41.158-13.881c.28 4.668.306 8.428.08 11.281-.226 2.853-.956 5.179-2.189 6.976l17.956-1.816-2.309-22.828-13.849 1.401.311 4.986zm45.19-24.158l18.052-1.826 1.941 19.198 18.625-1.884-1.941-19.198 18.147-1.835 5.236 51.768-18.147 1.835-1.836-18.147-18.625 1.884 1.836 18.147-18.052 1.826-5.236-51.768zm117.79-12.782c5.412-.547 10.367.11 14.865 1.97 4.556 1.79 8.249 4.601 11.081 8.432 2.826 3.767 4.499 8.229 5.021 13.387.521 5.157-.222 9.896-2.229 14.216-2.007 4.32-5.06 7.845-9.158 10.575-4.035 2.724-8.758 4.36-14.17 4.907-6.814.689-12.884-.498-18.211-3.561-5.264-3.07-8.956-7.457-11.077-13.161l-5.444.551 1.884 18.625-18.052 1.826-5.236-51.768 18.052-1.826 1.806 17.861 5.54-.56c1.146-5.841 3.968-10.694 8.466-14.558 4.492-3.928 10.112-6.233 16.862-6.916zm3.951 39.065c2.993-.303 5.363-1.668 7.112-4.097 1.748-2.428 2.429-5.552 2.043-9.373-.387-3.82-1.676-6.713-3.869-8.679-2.193-1.965-4.786-2.796-7.779-2.494-2.992.303-5.366 1.637-7.121 4.001-1.755 2.365-2.439 5.458-2.053 9.278.386 3.821 1.679 6.745 3.879 8.774 2.199 2.029 4.795 2.892 7.788 2.59zm105.028-24.325c6.121 1.375 9.494 5.151 10.119 11.328.47 4.648-.974 8.493-4.333 11.534-3.366 2.978-8.583 4.824-15.65 5.539l-29.132 2.947-5.236-51.768 27.794-2.811c6.75-.683 12.091-.033 16.022 1.95 3.995 1.975 6.208 5.096 6.64 9.363.251 2.483-.164 4.744-1.244 6.783-1.08 2.039-2.74 3.751-4.98 5.135zm-25.889-1.241l9.934-1.005c4.202-.425 6.146-2.197 5.83-5.317-.303-2.993-2.555-4.277-6.758-3.852l-9.933 1.005.927 9.169zm13.213 18.058c4.393-.444 6.429-2.258 6.107-5.442-.322-3.184-2.616-4.56-6.882-4.128l-11.462 1.159.966 9.551 11.271-1.14zm148.816-17.85l2.55 25.216-16.81 1.7-1.082-10.697-32.57 3.294 1.082 10.697-16.906 1.71-2.55-25.215 1.91-.193c3.114-.38 5.108-2.286 5.983-5.719.868-3.498 1.124-8.284.767-14.359l-1.157-18.12 47.852-4.839 3.767 37.25 7.164-.725zm-41.158-13.88c.279 4.667.305 8.428.079 11.281-.226 2.853-.955 5.178-2.189 6.976l17.957-1.817-2.309-22.827-13.85 1.4.312 4.987zm45.189-24.158l18.052-1.826 2.744 27.126 18.937-29.319 16.715-1.69 5.236 51.767-18.147 1.836-2.753-27.221-18.738 29.394-16.81 1.701-5.236-51.768zm116.337 2.803l-16.619 1.681 3.777 37.345-18.052 1.826-3.777-37.345-16.715 1.69-1.459-14.422 51.386-5.197 1.459 14.422zm58.585 5.75c.012.127.068 1.633.167 4.518l-37.632 3.806c1.035 2.597 2.708 4.519 5.022 5.764 2.37 1.176 5.211 1.596 8.522 1.261 2.483-.251 4.581-.817 6.293-1.698 1.776-.887 3.506-2.22 5.192-3.999l10.556 8.968c-4.464 6.112-11.535 9.657-21.214 10.636-6.049.612-11.482.004-16.298-1.825-4.816-1.829-8.704-4.652-11.663-8.47-2.896-3.823-4.605-8.314-5.126-13.472-.515-5.094.234-9.769 2.248-14.025 2.071-4.327 5.156-7.855 9.254-10.585 4.098-2.73 8.853-4.37 14.265-4.917 5.158-.521 9.948.088 14.369 1.828 4.415 1.676 8.039 4.43 10.87 8.26 2.89 3.76 4.614 8.41 5.175 13.95zm-29.014-11.153c-2.802.283-5.077 1.318-6.826 3.103-1.686 1.778-2.645 4.062-2.878 6.852l21.204-2.145c-.786-2.686-2.215-4.729-4.286-6.127-2.008-1.406-4.412-1.966-7.214-1.683zm88.513-21.11l5.236 51.768-18.147 1.835-3.777-37.345-13.086 1.323.42 7.966c.428 6.776.323 12.415-.315 16.918s-2.073 8.122-4.306 10.856c-2.238 2.671-5.522 4.225-9.852 4.663-2.229.226-5.2.108-8.913-.353l-.733-14.881c1.159.011 1.929-.002 2.311-.041 1.974-.2 3.406-.988 4.296-2.364.89-1.377 1.42-3.135 1.589-5.275.164-2.204.128-5.095-.105-8.674l-1.419-21.663 46.801-4.733zm60.907-6.16l5.236 51.767-16.141 1.633-1.42-14.04-8.214.83-7.75 14.968-19.198 1.942 9.791-17.683c-3.593-1.18-6.445-2.983-8.556-5.407-2.053-2.494-3.267-5.587-3.64-9.28-.625-6.177 1.184-11.184 5.428-15.023 4.236-3.902 10.366-6.259 18.389-7.07l26.075-2.638zm-24.243 16.925c-5.094.515-7.445 2.715-7.052 6.6.206 2.037.962 3.472 2.269 4.305 1.37.826 3.328 1.11 5.875.853l9.647-.976-1.188-11.748-9.551.966z" fill="#043E44"/><path d="M508 76c-15.475 0-28 12.523-28 28 0 15.475 12.523 28 28 28 15.475 0 28-12.523 28-28 0-15.475-12.523-28-28-28zm0 52.719c-13.661 0-24.719-11.056-24.719-24.719 0-13.661 11.056-24.719 24.719-24.719 13.661 0 24.719 11.056 24.719 24.719 0 13.661-11.056 24.719-24.719 24.719z" fill="#043E44" stroke="#043E44"/><path d="M508 85.828c-10.053 0-18.172 8.181-18.172 18.172 0 9.959 8.087 18.172 18.172 18.172 10.068 0 18.172-8.193 18.172-18.172 0-9.983-8.113-18.172-18.172-18.172zm2.199 11.693v-7.118a13.779 13.779 0 018.471 4.897l-6.161 3.557a6.832 6.832 0 00-2.31-1.336zm-6.708 1.336L497.33 95.3a13.78 13.78 0 018.471-4.897v7.117a6.845 6.845 0 00-2.31 1.337zM494.227 104c0-1.723.318-3.373.898-4.894l6.162 3.558a6.84 6.84 0 000 2.672l-6.162 3.558a13.708 13.708 0 01-.898-4.894zm11.574 6.479v7.118a13.781 13.781 0 01-8.471-4.897l6.161-3.557a6.826 6.826 0 002.31 1.336zm-.246-6.479a2.448 2.448 0 012.445-2.445 2.448 2.448 0 012.445 2.445 2.448 2.448 0 01-2.445 2.445 2.448 2.448 0 01-2.445-2.445zm6.954 5.143l6.161 3.557a13.781 13.781 0 01-8.471 4.897v-7.118a6.826 6.826 0 002.31-1.336zm8.366-.249l-6.162-3.558a6.84 6.84 0 000-2.672l6.162-3.558c.58 1.521.898 3.171.898 4.894 0 1.723-.318 3.373-.898 4.894z" fill="#043E44" stroke="#043E44"/></svg>