<svg width="375" height="376" fill="none" xmlns="http://www.w3.org/2000/svg"><path fill-rule="evenodd" clip-rule="evenodd" d="M224.734 451.375c219.266-3.842 422.127-20.913 598.883-43.71 164.676-21.238 313.213-48.284 376.623-82.104 59.13-31.539-71.95-64.851-39.81-97.54 41.6-42.321 399.06-84.182 252.49-118.804-155.69-36.776-543.382 16.53-775.967-4.847C418.26 84.27 472.234 1.111 224.734.012-19.25-1.072-8.146 74.499-199.88 100.652c-151.499 20.666-418.345 5.002-539.921 30.928-119.681 25.521-50.825 63.584-57.37 96.442-6.778 34.03-38.168 67.739 18.169 100.362 65.415 37.879 144.184 78.734 330.55 101.57 189.476 23.217 442.259 25.467 673.186 21.421z" fill="#C4C4C4"/><path fill-rule="evenodd" clip-rule="evenodd" d="M224.734 451.375c219.266-3.842 422.127-20.913 598.883-43.71 164.676-21.238 313.213-48.284 376.623-82.104 59.13-31.539-71.95-64.851-39.81-97.54 41.6-42.321 399.06-84.182 252.49-118.804-155.69-36.776-543.382 16.53-775.967-4.847C418.26 84.27 472.234 1.111 224.734.012-19.25-1.072-8.146 74.499-199.88 100.652c-151.499 20.666-418.345 5.002-539.921 30.928-119.681 25.521-50.825 63.584-57.37 96.442-6.778 34.03-38.168 67.739 18.169 100.362 65.415 37.879 144.184 78.734 330.55 101.57 189.476 23.217 442.259 25.467 673.186 21.421z" fill="url(#paint0_radial)"/><defs><radialGradient id="paint0_radial" cx="0" cy="0" r="1" gradientUnits="userSpaceOnUse" gradientTransform="rotate(168.666 231.776 131.658) scale(1117.97 1146.25)"><stop stop-color="#B2EA23"/><stop offset="1" stop-color="#65C10E"/></radialGradient></defs></svg>