<svg width="1920" height="278" fill="none" xmlns="http://www.w3.org/2000/svg"><path fill-rule="evenodd" clip-rule="evenodd" d="M1012.73 1.952c219.27 4.613 422.13 25.113 598.89 52.49 164.67 25.505 313.21 57.983 376.62 98.598 59.13 37.873-71.95 77.878-39.81 117.133 41.6 50.823 399.06 101.094 252.49 142.671-155.69 44.163-543.38-19.851-775.97 5.82-218.69 24.138-164.72 124.002-412.22 125.323-243.98 1.302-232.877-89.451-424.61-120.858-151.499-24.816-418.345-6.006-539.922-37.14-119.68-30.648-50.824-76.357-57.369-115.816-6.778-40.866-38.168-81.346 18.169-120.523 65.415-45.489 144.184-94.55 330.55-121.974C529.024-.205 781.806-2.907 1012.73 1.952z" fill="#C4C4C4"/><path fill-rule="evenodd" clip-rule="evenodd" d="M1012.73 1.952c219.27 4.613 422.13 25.113 598.89 52.49 164.67 25.505 313.21 57.983 376.62 98.598 59.13 37.873-71.95 77.878-39.81 117.133 41.6 50.823 399.06 101.094 252.49 142.671-155.69 44.163-543.38-19.851-775.97 5.82-218.69 24.138-164.72 124.002-412.22 125.323-243.98 1.302-232.877-89.451-424.61-120.858-151.499-24.816-418.345-6.006-539.922-37.14-119.68-30.648-50.824-76.357-57.369-115.816-6.778-40.866-38.168-81.346 18.169-120.523 65.415-45.489 144.184-94.55 330.55-121.974C529.024-.205 781.806-2.907 1012.73 1.952z" fill="url(#paint0_radial)"/><defs><radialGradient id="paint0_radial" cx="0" cy="0" r="1" gradientUnits="userSpaceOnUse" gradientTransform="matrix(-1096.17126 -263.8555 319.41943 -1327.00811 1272.91 285.573)"><stop stop-color="#B2EA23"/><stop offset="1" stop-color="#65C10E"/></radialGradient></defs></svg>