<svg width="1519" height="960" fill="none" xmlns="http://www.w3.org/2000/svg"><path fill-rule="evenodd" clip-rule="evenodd" d="M587.477-80.255C754.449-71.401 908.929-32.06 1043.53 20.479c125.4 48.948 238.51 111.277 286.8 189.222 45.03 72.684-54.79 149.456-30.32 224.792 31.69 97.535 303.89 194.011 192.27 273.802-118.55 84.754-413.78-38.096-590.896 11.17-166.536 46.323-125.434 237.974-313.907 240.508-185.795 2.499-177.339-171.665-323.345-231.94-115.367-47.626-318.572-11.526-411.153-71.275-91.137-58.818-38.703-146.539-43.687-222.265-5.161-78.427-29.065-156.114 13.836-231.297C-127.058 115.897-67.075 21.742 74.844-30.887 219.13-84.394 411.625-89.58 587.477-80.255z" fill="#C4C4C4"/><path fill-rule="evenodd" clip-rule="evenodd" d="M587.477-80.255C754.449-71.401 908.929-32.06 1043.53 20.479c125.4 48.948 238.51 111.277 286.8 189.222 45.03 72.684-54.79 149.456-30.32 224.792 31.69 97.535 303.89 194.011 192.27 273.802-118.55 84.754-413.78-38.096-590.896 11.17-166.536 46.323-125.434 237.974-313.907 240.508-185.795 2.499-177.339-171.665-323.345-231.94-115.367-47.626-318.572-11.526-411.153-71.275-91.137-58.818-38.703-146.539-43.687-222.265-5.161-78.427-29.065-156.114 13.836-231.297C-127.058 115.897-67.075 21.742 74.844-30.887 219.13-84.394 411.625-89.58 587.477-80.255z" fill="url(#paint0_radial)"/><defs><radialGradient id="paint0_radial" cx="0" cy="0" r="1" gradientUnits="userSpaceOnUse" gradientTransform="matrix(-834.73656 -506.37112 1194.73478 -1969.48198 785.6 464.048)"><stop stop-color="#B2EA23"/><stop offset="1" stop-color="#65C10E"/></radialGradient></defs></svg>