<svg width="918" height="1053" fill="none" xmlns="http://www.w3.org/2000/svg"><path fill-rule="evenodd" clip-rule="evenodd" d="M998.099 1049.22c-178.906-8.93-344.426-48.61-488.646-101.6-134.364-49.37-255.56-112.236-307.298-190.853-48.247-73.31 58.702-150.745 32.482-226.73-33.946-98.376-325.603-195.684-206.012-276.162 127.032-85.485 443.359 38.424 633.132-11.266C840.195 195.886 796.156 2.583 998.099.027c199.071-2.52 190.011 173.146 346.451 233.939 123.62 48.037 341.34 11.627 440.54 71.891 97.65 59.324 41.47 147.801 46.81 224.18 5.53 79.104 31.14 157.46-14.82 233.292-53.38 88.051-117.65 183.017-269.71 236.1-154.6 53.971-360.85 59.201-549.271 49.791z" fill="#C4C4C4"/><path fill-rule="evenodd" clip-rule="evenodd" d="M998.099 1049.22c-178.906-8.93-344.426-48.61-488.646-101.6-134.364-49.37-255.56-112.236-307.298-190.853-48.247-73.31 58.702-150.745 32.482-226.73-33.946-98.376-325.603-195.684-206.012-276.162 127.032-85.485 443.359 38.424 633.132-11.266C840.195 195.886 796.156 2.583 998.099.027c199.071-2.52 190.011 173.146 346.451 233.939 123.62 48.037 341.34 11.627 440.54 71.891 97.65 59.324 41.47 147.801 46.81 224.18 5.53 79.104 31.14 157.46-14.82 233.292-53.38 88.051-117.65 183.017-269.71 236.1-154.6 53.971-360.85 59.201-549.271 49.791z" fill="url(#paint0_radial)"/><defs><radialGradient id="paint0_radial" cx="0" cy="0" r="1" gradientUnits="userSpaceOnUse" gradientTransform="matrix(894.39754 510.7348 -1170.1899 2049.23372 785.814 500.226)"><stop stop-color="#B2EA23"/><stop offset="1" stop-color="#65C10E"/></radialGradient></defs></svg>