<svg width="99" height="387" fill="none" xmlns="http://www.w3.org/2000/svg"><path fill-rule="evenodd" clip-rule="evenodd" d="M320.195 1.388c67.72 3.282 130.373 17.866 184.964 37.341 50.861 18.145 96.736 41.25 116.32 70.143 18.263 26.943-22.22 55.402-12.295 83.328 12.849 36.155 123.249 71.918 77.981 101.495-48.085 31.418-167.823-14.121-239.657 4.141-67.543 17.172-50.873 88.215-127.313 89.154-75.355.926-71.925-63.635-131.142-85.978-46.79-17.654-129.206-4.273-166.755-26.421-36.963-21.803-15.697-54.32-17.718-82.391-2.094-29.072-11.788-57.87 5.611-85.74C30.395 74.1 54.723 39.198 112.282 19.689 170.801-.146 248.873-2.07 320.195 1.389z" fill="#C4C4C4"/><path fill-rule="evenodd" clip-rule="evenodd" d="M320.195 1.388c67.72 3.282 130.373 17.866 184.964 37.341 50.861 18.145 96.736 41.25 116.32 70.143 18.263 26.943-22.22 55.402-12.295 83.328 12.849 36.155 123.249 71.918 77.981 101.495-48.085 31.418-167.823-14.121-239.657 4.141-67.543 17.172-50.873 88.215-127.313 89.154-75.355.926-71.925-63.635-131.142-85.978-46.79-17.654-129.206-4.273-166.755-26.421-36.963-21.803-15.697-54.32-17.718-82.391-2.094-29.072-11.788-57.87 5.611-85.74C30.395 74.1 54.723 39.198 112.282 19.689 170.801-.146 248.873-2.07 320.195 1.389z" fill="url(#paint0_radial)"/><defs><radialGradient id="paint0_radial" cx="0" cy="0" r="1" gradientUnits="userSpaceOnUse" gradientTransform="rotate(-150.994 226.55 49.772) scale(387.105 873.455)"><stop stop-color="#B2EA23"/><stop offset="1" stop-color="#65C10E"/></radialGradient></defs></svg>