<svg width="1002" height="1053" fill="none" xmlns="http://www.w3.org/2000/svg"><path fill-rule="evenodd" clip-rule="evenodd" d="M-77.83 3.777c193.555 8.93 372.629 48.612 528.66 101.603 145.366 49.37 276.486 112.236 332.461 190.853 52.197 73.311-63.509 150.745-35.142 226.73 36.726 98.376 352.271 195.684 222.882 276.162-137.434 85.486-479.665-38.424-684.978 11.267C93.003 857.114 140.649 1050.42-77.83 1052.97c-215.375 2.52-205.574-173.142-374.825-233.936-133.735-48.036-369.292-11.626-476.612-71.89-105.643-59.324-44.865-147.801-50.643-224.18-5.983-79.104-33.69-157.46 16.039-233.292 57.744-88.052 127.277-183.018 291.791-236.1 167.258-53.97 390.4-59.2 594.25-49.795z" fill="#C4C4C4"/><path fill-rule="evenodd" clip-rule="evenodd" d="M-77.83 3.777c193.555 8.93 372.629 48.612 528.66 101.603 145.366 49.37 276.486 112.236 332.461 190.853 52.197 73.311-63.509 150.745-35.142 226.73 36.726 98.376 352.271 195.684 222.882 276.162-137.434 85.486-479.665-38.424-684.978 11.267C93.003 857.114 140.649 1050.42-77.83 1052.97c-215.375 2.52-205.574-173.142-374.825-233.936-133.735-48.036-369.292-11.626-476.612-71.89-105.643-59.324-44.865-147.801-50.643-224.18-5.983-79.104-33.69-157.46 16.039-233.292 57.744-88.052 127.277-183.018 291.791-236.1 167.258-53.97 390.4-59.2 594.25-49.795z" fill="url(#paint0_radial)"/><defs><radialGradient id="paint0_radial" cx="0" cy="0" r="1" gradientUnits="userSpaceOnUse" gradientTransform="rotate(-152.174 144.383 257.58) scale(1094.15 2403.24)"><stop stop-color="#B2EA23"/><stop offset="1" stop-color="#65C10E"/></radialGradient></defs></svg>