<svg width="375" height="448" fill="none" xmlns="http://www.w3.org/2000/svg"><path fill-rule="evenodd" clip-rule="evenodd" d="M85.074 1.607c58.6 3.8 112.816 20.682 160.055 43.227 44.011 21.004 83.708 47.75 100.655 81.198 15.803 31.191-19.227 64.135-10.639 96.463 11.119 41.854 106.651 83.254 67.479 117.493-41.609 36.37-145.222-16.347-207.382 4.794-58.447 19.878-44.022 102.119-110.168 103.207-65.206 1.072-62.239-73.665-113.48-99.53-40.49-20.437-111.806-4.947-144.298-30.586-31.986-25.24-13.584-62.882-15.333-95.378-1.811-33.654-10.2-66.991 4.856-99.254 17.483-37.462 38.534-77.865 88.342-100.45C-44.201-.168 23.357-2.394 85.074 1.608z" fill="#C4C4C4"/><path fill-rule="evenodd" clip-rule="evenodd" d="M85.074 1.607c58.6 3.8 112.816 20.682 160.055 43.227 44.011 21.004 83.708 47.75 100.655 81.198 15.803 31.191-19.227 64.135-10.639 96.463 11.119 41.854 106.651 83.254 67.479 117.493-41.609 36.37-145.222-16.347-207.382 4.794-58.447 19.878-44.022 102.119-110.168 103.207-65.206 1.072-62.239-73.665-113.48-99.53-40.49-20.437-111.806-4.947-144.298-30.586-31.986-25.24-13.584-62.882-15.333-95.378-1.811-33.654-10.2-66.991 4.856-99.254 17.483-37.462 38.534-77.865 88.342-100.45C-44.201-.168 23.357-2.394 85.074 1.608z" fill="url(#paint0_radial)"/><defs><radialGradient id="paint0_radial" cx="0" cy="0" r="1" gradientUnits="userSpaceOnUse" gradientTransform="rotate(-143.435 116.153 92.05) scale(364.748 928.593)"><stop stop-color="#B2EA23"/><stop offset="1" stop-color="#65C10E"/></radialGradient></defs></svg>