<svg width="255" height="70" viewBox="0 0 255 70" fill="none" xmlns="http://www.w3.org/2000/svg">
<g clip-path="url(#clip0)">
<path d="M81.9919 0.299805H89.1216L97.2373 25.5568L105.353 0.299805H112.559L101.333 33.2013H93.2174L81.9919 0.299805Z" fill="#043E44"/>
<path d="M137.664 21.4348C137.664 28.4048 132.43 33.8009 126.059 33.8009C122.57 33.8009 120.067 32.5268 118.322 30.3534V42.4947H112.255V9.66817H118.398V12.4412C120.143 10.2677 122.646 8.99365 126.135 8.99365C132.43 8.99365 137.664 14.3898 137.664 21.4348ZM131.52 21.4348C131.52 17.4626 128.714 14.8395 124.921 14.8395C121.129 14.8395 118.398 17.5376 118.398 21.4348C118.398 25.4069 121.205 28.0301 124.921 28.0301C128.714 28.0301 131.52 25.332 131.52 21.4348Z" fill="#043E44"/>
<path d="M154.047 9.21851V15.9637C150.861 15.589 146.841 17.0129 146.841 21.9594V33.2014H140.698V9.66818H146.841V13.7153C148.055 10.4926 151.089 9.21851 154.047 9.21851Z" fill="#043E44"/>
<path d="M154.199 21.4348C154.199 14.4647 159.736 9.0686 166.714 9.0686C173.692 9.0686 179.305 14.4647 179.305 21.4348C179.305 28.4048 173.692 33.8009 166.714 33.8009C159.812 33.8009 154.199 28.4048 154.199 21.4348ZM173.237 21.4348C173.237 17.6125 170.43 14.9894 166.79 14.9894C163.149 14.9894 160.343 17.6874 160.343 21.4348C160.343 25.257 163.149 27.8802 166.79 27.8802C170.43 27.8802 173.237 25.1821 173.237 21.4348Z" fill="#043E44"/>
<path d="M197.204 33.1264L188.558 22.484V33.1264H182.414V0.299805H188.558V20.0107L196.749 9.66811H204.107L194.55 21.2848L204.41 33.2013H197.204V33.1264Z" fill="#043E44"/>
<path d="M205.624 29.7537C205.624 27.5802 207.444 25.7815 209.643 25.7815C211.843 25.7815 213.663 27.5802 213.663 29.7537C213.663 31.9271 211.843 33.7258 209.643 33.7258C207.368 33.8008 205.624 32.0021 205.624 29.7537Z" fill="#043E44"/>
<path d="M230.881 9.21851V15.9637C227.695 15.589 223.675 17.0129 223.675 21.9594V33.2014H217.531V9.66818H223.675V13.7153C224.889 10.4926 227.923 9.21851 230.881 9.21851Z" fill="#043E44"/>
<path d="M255.001 9.66797V33.1262H248.858V30.5031C247.417 32.6016 244.989 33.8007 241.804 33.8007C236.798 33.8007 232.854 30.3532 232.854 24.0577V9.66797H238.997V23.3082C238.997 26.5309 240.969 28.1797 243.7 28.1797C246.658 28.1797 248.934 26.456 248.934 22.3339V9.66797H255.001Z" fill="#043E44"/>
<path d="M101.333 64.5288H97.5406V49.1648H90.7902V64.5288H86.9978V45.6423H101.333V64.5288Z" fill="#043E44"/>
<path d="M111.346 61.7559C112.711 61.7559 113.848 61.1563 114.379 60.4069L117.262 62.0557C115.972 63.9294 113.924 64.9786 111.27 64.9786C106.643 64.9786 103.761 61.8309 103.761 57.8587C103.761 53.8116 106.719 50.7388 110.966 50.7388C114.986 50.7388 117.868 53.8865 117.868 57.8587C117.868 58.3833 117.793 58.833 117.717 59.2827H107.401C107.932 61.0064 109.449 61.7559 111.346 61.7559ZM114.379 56.5097C113.924 54.561 112.483 53.8116 110.966 53.8116C109.07 53.8116 107.781 54.7859 107.401 56.5097H114.379Z" fill="#043E44"/>
<path d="M134.782 57.7837C134.782 61.8308 131.748 64.9036 128.107 64.9036C126.135 64.9036 124.618 64.1542 123.632 62.955V70H120.068V51.0386H123.632V52.6124C124.618 51.3383 126.06 50.6638 128.107 50.6638C131.748 50.6638 134.782 53.7366 134.782 57.7837ZM131.217 57.7837C131.217 55.5353 129.624 53.9615 127.425 53.9615C125.225 53.9615 123.632 55.5353 123.632 57.7837C123.632 60.0321 125.225 61.606 127.425 61.606C129.624 61.606 131.217 60.1071 131.217 57.7837Z" fill="#043E44"/>
<path d="M143.884 61.7559C145.249 61.7559 146.387 61.1563 146.918 60.4069L149.8 62.0557C148.51 63.9294 146.462 64.9786 143.808 64.9786C139.181 64.9786 136.299 61.8309 136.299 57.8587C136.299 53.8116 139.257 50.7388 143.504 50.7388C147.524 50.7388 150.407 53.8865 150.407 57.8587C150.407 58.3833 150.331 58.833 150.255 59.2827H139.94C140.47 61.0064 141.987 61.7559 143.884 61.7559ZM146.918 56.5097C146.462 54.561 145.021 53.8116 143.504 53.8116C141.608 53.8116 140.319 54.7859 139.94 56.5097H146.918Z" fill="#043E44"/>
<path d="M161.177 64.5289L156.171 58.3833V64.5289H152.606V51.0386H156.171V56.9593L160.873 51.0386H165.121L159.584 57.7088L165.272 64.5289H161.177Z" fill="#043E44"/>
<path d="M181.428 57.7837C181.428 61.8308 178.394 64.9036 174.754 64.9036C172.782 64.9036 171.265 64.1542 170.279 62.955V70H166.714V51.0386H170.279V52.6124C171.265 51.3383 172.706 50.6638 174.754 50.6638C178.394 50.6638 181.428 53.7366 181.428 57.7837ZM177.863 57.7837C177.863 55.5353 176.271 53.9615 174.071 53.9615C171.872 53.9615 170.279 55.5353 170.279 57.7837C170.279 60.0321 171.872 61.606 174.071 61.606C176.271 61.606 177.863 60.1071 177.863 57.7837Z" fill="#043E44"/>
<path d="M190.453 61.7559C191.818 61.7559 192.956 61.1563 193.487 60.4068L196.369 62.0556C195.08 63.9293 193.032 64.9785 190.377 64.9785C185.751 64.9785 182.868 61.8308 182.868 57.8586C182.868 53.8115 185.826 50.7387 190.074 50.7387C194.094 50.7387 196.976 53.8865 196.976 57.8586C196.976 58.3833 196.9 58.8329 196.824 59.2826H186.509C187.116 61.0064 188.633 61.7559 190.453 61.7559ZM185.523 47.8158C185.523 46.8415 186.357 45.9421 187.419 45.9421C188.405 45.9421 189.24 46.7666 189.24 47.8158C189.24 48.7901 188.405 49.6145 187.419 49.6145C186.357 49.6145 185.523 48.7901 185.523 47.8158ZM193.563 56.5096C193.108 54.561 191.667 53.8115 190.15 53.8115C188.254 53.8115 186.964 54.7858 186.585 56.5096H193.563ZM190.757 47.8158C190.757 46.8415 191.591 45.9421 192.653 45.9421C193.639 45.9421 194.473 46.7666 194.473 47.8158C194.473 48.7901 193.639 49.6145 192.653 49.6145C191.591 49.6145 190.757 48.7901 190.757 47.8158Z" fill="#043E44"/>
<path d="M198.495 57.7837C198.495 53.7366 201.529 50.6638 205.7 50.6638C208.355 50.6638 210.706 52.0878 211.844 54.1863L208.81 55.9101C208.279 54.7859 207.065 54.1114 205.7 54.1114C203.576 54.1114 202.059 55.6852 202.059 57.7837C202.059 59.9572 203.652 61.4561 205.7 61.4561C207.141 61.4561 208.279 60.7816 208.886 59.6574L211.92 61.3812C210.706 63.4797 208.431 64.9036 205.7 64.9036C201.529 64.9786 198.495 61.8308 198.495 57.7837Z" fill="#043E44"/>
<path d="M224.965 54.4112H220.718V64.6039H217.153V54.4112H212.829V51.0386H224.965V54.4112Z" fill="#043E44"/>
<path d="M225.269 57.7837C225.269 53.7366 228.454 50.6638 232.474 50.6638C236.494 50.6638 239.756 53.8116 239.756 57.7837C239.756 61.8308 236.494 64.9037 232.474 64.9037C228.454 64.9037 225.269 61.8308 225.269 57.7837ZM236.267 57.7837C236.267 55.6103 234.674 54.0364 232.55 54.0364C230.502 54.0364 228.834 55.6103 228.834 57.7837C228.834 59.9572 230.426 61.5311 232.55 61.5311C234.598 61.5311 236.267 59.9572 236.267 57.7837Z" fill="#043E44"/>
<path d="M250.526 64.5289L245.52 58.3833V64.5289H241.955V51.0386H245.52V56.9593L250.222 51.0386H254.47L248.933 57.7088L254.621 64.5289H250.526Z" fill="#043E44"/>
<path d="M52.5625 1.84204H13.3492C5.99197 1.84204 0 7.76281 0 15.0326V53.7799C0 61.0498 5.99197 66.9705 13.3492 66.9705H52.4866C59.8438 66.9705 65.8358 61.0498 65.8358 53.7799V15.0326C65.9117 7.76281 59.9197 1.84204 52.5625 1.84204Z" fill="#043E44"/>
<path d="M33.2968 24.5508L23.2849 34.4438L33.2968 44.3367C38.8337 49.8078 47.7837 49.8078 53.3206 44.3367C58.8575 38.8656 58.8575 30.0219 53.3206 24.5508C47.7837 19.0797 38.8337 19.0797 33.2968 24.5508Z" fill="white"/>
<path d="M15.1699 34.4438L5.23385 24.5509C4.47537 23.8014 3.71689 23.2019 2.88257 22.6772V46.2104C3.71689 45.6858 4.55122 45.0862 5.23385 44.3368L15.1699 34.4438Z" fill="white"/>
<path d="M29.2778 48.3089L19.2659 38.416L9.25397 48.3089C5.91667 51.6066 4.62726 56.1783 5.30989 60.5252C7.28193 62.7736 10.1641 64.2725 13.3497 64.2725H32.0083C34.5113 59.0263 33.6011 52.5809 29.2778 48.3089Z" fill="white"/>
<path d="M9.25397 20.5036L19.2659 30.3966L29.2778 20.5036C33.6011 16.2317 34.5113 9.7863 32.0083 4.61499H13.3497C10.0883 4.61499 7.20608 6.03897 5.30989 8.36231C4.62726 12.6343 5.91667 17.206 9.25397 20.5036Z" fill="white"/>
</g>
<defs>
<clipPath id="clip0">
<rect width="255" height="70" fill="white"/>
</clipPath>
</defs>
</svg>
