<svg width="916" height="207" viewBox="0 0 916 207" fill="none" xmlns="http://www.w3.org/2000/svg">
<path d="M40.963 154.553L32.3669 155.422L34.9559 181.02L16.1399 182.923L9.37759 116.064L28.1936 114.161L30.8212 140.14L39.8949 139.223L53.2179 111.63L73.0846 109.62L55.4325 144.019L80.0379 176.46L58.7385 178.614L40.963 154.553ZM109.803 174.318C104.263 174.878 99.149 174.238 94.4599 172.396C89.7708 170.555 85.9466 167.725 82.9874 163.907C80.0919 160.083 78.3833 155.593 77.8617 150.435C77.3465 145.341 78.1244 140.631 80.1956 136.304C82.3304 131.971 85.4819 128.469 89.6501 125.796C93.8755 123.052 98.7899 121.397 104.393 120.831C109.997 120.264 115.143 120.901 119.832 122.743C124.515 124.521 128.304 127.322 131.199 131.146C134.088 134.906 135.794 139.365 136.315 144.523C136.837 149.68 136.062 154.422 133.991 158.749C131.92 163.075 128.772 166.61 124.546 169.353C120.321 172.096 115.407 173.751 109.803 174.318ZM108.344 159.895C111.528 159.573 114.029 158.227 115.848 155.856C117.66 153.421 118.37 150.262 117.977 146.378C117.591 142.557 116.269 139.667 114.013 137.708C111.756 135.75 109.036 134.931 105.852 135.253C102.668 135.575 100.167 136.922 98.3485 139.293C96.5298 141.664 95.8137 144.76 96.2001 148.58C96.593 152.464 97.9209 155.418 100.184 157.44C102.441 159.399 105.161 160.217 108.344 159.895ZM235.005 146.12L237.555 171.335L220.745 173.035L219.663 162.338L187.093 165.632L188.175 176.33L171.27 178.039L168.719 152.824L170.63 152.631C173.743 152.252 175.737 150.345 176.612 146.912C177.481 143.415 177.737 138.629 177.379 132.554L176.222 114.434L224.074 109.594L227.842 146.844L235.005 146.12ZM193.847 132.239C194.127 136.907 194.153 140.667 193.927 143.52C193.701 146.373 192.971 148.699 191.738 150.496L209.694 148.68L207.385 125.852L193.536 127.253L193.847 132.239ZM239.037 108.081L257.089 106.255L259.03 125.453L277.655 123.569L275.714 104.371L293.861 102.536L299.097 154.304L280.95 156.139L279.114 137.992L260.489 139.876L262.325 158.023L244.273 159.849L239.037 108.081ZM356.827 95.299C362.239 94.7516 367.194 95.4083 371.692 97.2691C376.248 99.0598 379.941 101.87 382.773 105.701C385.599 109.468 387.272 113.93 387.794 119.088C388.315 124.245 387.572 128.984 385.565 133.304C383.558 137.624 380.505 141.149 376.407 143.879C372.372 146.603 367.649 148.239 362.237 148.786C355.423 149.475 349.353 148.288 344.026 145.225C338.762 142.155 335.07 137.768 332.949 132.064L327.505 132.615L329.389 151.24L311.337 153.066L306.101 101.298L324.153 99.4721L325.959 117.333L331.499 116.773C332.645 110.932 335.467 106.079 339.965 102.215C344.457 98.287 350.077 95.9817 356.827 95.299ZM360.778 134.364C363.771 134.061 366.141 132.696 367.89 130.267C369.638 127.839 370.319 124.715 369.933 120.894C369.546 117.074 368.257 114.181 366.064 112.215C363.871 110.25 361.278 109.419 358.285 109.721C355.293 110.024 352.919 111.358 351.164 113.722C349.409 116.087 348.725 119.18 349.111 123C349.497 126.821 350.79 129.745 352.99 131.774C355.189 133.803 357.785 134.666 360.778 134.364ZM465.806 110.039C471.927 111.414 475.3 115.19 475.925 121.367C476.395 126.015 474.951 129.86 471.592 132.901C468.226 135.879 463.009 137.725 455.942 138.44L426.81 141.387L421.574 89.6187L449.368 86.8075C456.118 86.1248 461.459 86.7747 465.39 88.7572C469.385 90.7332 471.598 93.8543 472.03 98.1205C472.281 100.604 471.866 102.865 470.786 104.904C469.706 106.943 468.046 108.655 465.806 110.039ZM439.917 108.798L449.851 107.793C454.053 107.368 455.997 105.596 455.681 102.476C455.378 99.4831 453.126 98.1992 448.923 98.6243L438.99 99.629L439.917 108.798ZM453.13 126.856C457.523 126.412 459.559 124.598 459.237 121.414C458.915 118.23 456.621 116.854 452.355 117.286L440.893 118.445L441.859 127.996L453.13 126.856ZM601.946 109.006L604.496 134.222L587.686 135.922L586.604 125.225L554.034 128.519L555.116 139.216L538.21 140.926L535.66 115.711L537.57 115.518C540.684 115.138 542.678 113.232 543.553 109.799C544.421 106.301 544.677 101.515 544.32 95.4404L543.163 77.3209L591.015 72.481L594.782 109.731L601.946 109.006ZM560.788 95.1257C561.067 99.7933 561.093 103.554 560.867 106.407C560.641 109.26 559.912 111.585 558.678 113.383L576.635 111.566L574.326 88.7389L560.476 90.1397L560.788 95.1257ZM605.977 70.9677L624.029 69.1419L626.773 96.2675L645.71 66.949L662.425 65.2584L667.661 117.026L649.514 118.862L646.761 91.6406L628.023 121.035L611.213 122.736L605.977 70.9677ZM722.314 73.7711L705.695 75.452L709.472 112.797L691.42 114.623L687.643 77.2778L670.928 78.9684L669.469 64.5459L720.855 59.3486L722.314 73.7711ZM780.899 79.5209C780.911 79.6483 780.967 81.1543 781.066 84.039L743.434 87.8452C744.469 90.4423 746.142 92.3636 748.456 93.6091C750.826 94.7846 753.667 95.2049 756.978 94.87C759.461 94.6188 761.559 94.0528 763.271 93.1721C765.047 92.2849 766.777 90.952 768.463 89.1733L779.019 98.1406C774.555 104.253 767.484 107.798 757.805 108.777C751.756 109.389 746.323 108.781 741.507 106.952C736.691 105.123 732.803 102.3 729.844 98.4828C726.948 94.6588 725.239 90.1679 724.718 85.0102C724.203 79.9162 724.952 75.2411 726.966 70.9848C729.037 66.6584 732.122 63.1301 736.22 60.3999C740.318 57.6696 745.073 56.0308 750.485 55.4834C755.643 54.9617 760.433 55.5708 764.854 57.3107C769.269 58.9869 772.893 61.7403 775.724 65.5708C778.614 69.3311 780.338 73.9812 780.899 79.5209ZM751.885 68.3679C749.083 68.6513 746.808 69.6855 745.059 71.4706C743.373 73.2492 742.414 75.5333 742.181 78.3229L763.385 76.1783C762.599 73.4918 761.17 71.4492 759.099 70.0505C757.091 68.6454 754.687 68.0845 751.885 68.3679ZM840.398 47.2577L845.634 99.0256L827.487 100.861L823.71 63.5156L810.624 64.8391L811.044 72.8053C811.472 79.5806 811.367 85.2198 810.729 89.7229C810.091 94.226 808.656 97.8448 806.423 100.579C804.185 103.25 800.901 104.804 796.571 105.242C794.342 105.468 791.371 105.35 787.658 104.889L786.925 90.0077C788.084 90.0192 788.854 90.0056 789.236 89.9669C791.21 89.7673 792.642 88.9792 793.532 87.6026C794.422 86.2261 794.952 84.4678 795.121 82.3279C795.285 80.1243 795.249 77.2332 795.016 73.6545L793.597 51.9913L840.398 47.2577ZM901.305 41.0974L906.541 92.8653L890.4 94.4979L888.98 80.4576L880.766 81.2884L873.016 96.2561L853.818 98.1979L863.609 80.5149C860.016 79.3345 857.164 77.5323 855.053 75.1084C853 72.6144 851.786 69.5208 851.413 65.8276C850.788 59.6511 852.597 54.6436 856.841 50.8052C861.077 46.903 867.207 44.5462 875.23 43.7347L901.305 41.0974ZM877.062 58.023C871.968 58.5382 869.617 60.7379 870.01 64.6221C870.216 66.6597 870.972 68.0949 872.279 68.9276C873.649 69.754 875.607 70.0383 878.154 69.7807L887.801 68.805L886.613 57.0569L877.062 58.023Z" fill="#043E44"/>
<path d="M508 76C492.525 76 480 88.5231 480 104C480 119.475 492.523 132 508 132C523.475 132 536 119.477 536 104C536 88.5253 523.477 76 508 76ZM508 128.719C494.339 128.719 483.281 117.663 483.281 104C483.281 90.3388 494.337 79.2812 508 79.2812C521.661 79.2812 532.719 90.3367 532.719 104C532.719 117.661 521.663 128.719 508 128.719Z" fill="#043E44" stroke="#043E44"/>
<path d="M508 85.8281C497.947 85.8281 489.828 94.0093 489.828 104C489.828 113.959 497.915 122.172 508 122.172C518.068 122.172 526.172 113.979 526.172 104C526.172 94.0172 518.059 85.8281 508 85.8281ZM510.199 97.5207V90.403C513.595 90.9501 516.581 92.7436 518.67 95.3003L512.509 98.8572C511.842 98.2712 511.059 97.813 510.199 97.5207ZM503.491 98.8571L497.33 95.3003C499.419 92.7436 502.405 90.9501 505.801 90.4029V97.5205C504.941 97.8129 504.158 98.2711 503.491 98.8571ZM494.227 104C494.227 102.277 494.545 100.627 495.125 99.1062L501.287 102.664C501.201 103.096 501.156 103.543 501.156 104C501.156 104.457 501.201 104.904 501.287 105.336L495.125 108.894C494.545 107.373 494.227 105.723 494.227 104ZM505.801 110.479V117.597C502.405 117.05 499.419 115.256 497.33 112.7L503.491 109.143C504.158 109.729 504.941 110.187 505.801 110.479ZM505.555 104C505.555 102.652 506.652 101.555 508 101.555C509.348 101.555 510.445 102.652 510.445 104C510.445 105.348 509.348 106.445 508 106.445C506.652 106.445 505.555 105.348 505.555 104ZM512.509 109.143L518.67 112.7C516.581 115.256 513.595 117.05 510.199 117.597V110.479C511.059 110.187 511.842 109.729 512.509 109.143ZM520.875 108.894L514.713 105.336C514.799 104.904 514.844 104.457 514.844 104C514.844 103.543 514.799 103.096 514.713 102.664L520.875 99.1062C521.455 100.627 521.773 102.277 521.773 104C521.773 105.723 521.455 107.373 520.875 108.894Z" fill="#043E44" stroke="#043E44"/>
</svg>
