<svg width="99" height="387" viewBox="0 0 99 387" fill="none" xmlns="http://www.w3.org/2000/svg">
<path fill-rule="evenodd" clip-rule="evenodd" d="M320.195 1.38808C387.915 4.67016 450.568 19.2539 505.159 38.7293C556.02 56.8738 601.895 79.9785 621.479 108.872C639.742 135.815 599.259 164.274 609.184 192.2C622.033 228.355 732.433 264.118 687.165 293.695C639.08 325.113 519.342 279.574 447.508 297.836C379.965 315.008 396.635 386.051 320.195 386.99C244.84 387.916 248.27 323.355 189.053 301.012C142.263 283.358 59.8472 296.739 22.2985 274.591C-14.6649 252.788 6.60131 220.271 4.57994 192.2C2.48646 163.128 -7.20814 134.33 10.1914 106.46C30.3948 74.0996 54.7226 39.1975 112.282 19.6885C170.801 -0.146098 248.873 -2.06853 320.195 1.38808Z" fill="#C4C4C4"/>
<path fill-rule="evenodd" clip-rule="evenodd" d="M320.195 1.38808C387.915 4.67016 450.568 19.2539 505.159 38.7293C556.02 56.8738 601.895 79.9785 621.479 108.872C639.742 135.815 599.259 164.274 609.184 192.2C622.033 228.355 732.433 264.118 687.165 293.695C639.08 325.113 519.342 279.574 447.508 297.836C379.965 315.008 396.635 386.051 320.195 386.99C244.84 387.916 248.27 323.355 189.053 301.012C142.263 283.358 59.8472 296.739 22.2985 274.591C-14.6649 252.788 6.60131 220.271 4.57994 192.2C2.48646 163.128 -7.20814 134.33 10.1914 106.46C30.3948 74.0996 54.7226 39.1975 112.282 19.6885C170.801 -0.146098 248.873 -2.06853 320.195 1.38808Z" fill="url(#paint0_radial)"/>
<defs>
<radialGradient id="paint0_radial" cx="0" cy="0" r="1" gradientUnits="userSpaceOnUse" gradientTransform="translate(400.549 203.156) rotate(-150.994) scale(387.105 873.455)">
<stop stop-color="#B2EA23"/>
<stop offset="1" stop-color="#65C10E"/>
</radialGradient>
</defs>
</svg>
