<svg width="375" height="376" viewBox="0 0 375 376" fill="none" xmlns="http://www.w3.org/2000/svg">
<path fill-rule="evenodd" clip-rule="evenodd" d="M224.734 451.375C444 447.533 646.861 430.462 823.617 407.665C988.293 386.427 1136.83 359.381 1200.24 325.561C1259.37 294.022 1128.29 260.71 1160.43 228.021C1202.03 185.7 1559.49 143.839 1412.92 109.217C1257.23 72.4412 869.538 125.747 636.953 104.37C418.26 84.2704 472.234 1.11134 224.734 0.0117781C-19.2501 -1.07219 -8.14666 74.4989 -199.88 100.652C-351.379 121.318 -618.225 105.654 -739.801 131.58C-859.482 157.101 -790.626 195.164 -797.171 228.022C-803.949 262.052 -835.339 295.761 -779.002 328.384C-713.587 366.263 -634.818 407.118 -448.452 429.954C-258.976 453.171 -6.19341 455.421 224.734 451.375Z" fill="#C4C4C4"/>
<path fill-rule="evenodd" clip-rule="evenodd" d="M224.734 451.375C444 447.533 646.861 430.462 823.617 407.665C988.293 386.427 1136.83 359.381 1200.24 325.561C1259.37 294.022 1128.29 260.71 1160.43 228.021C1202.03 185.7 1559.49 143.839 1412.92 109.217C1257.23 72.4412 869.538 125.747 636.953 104.37C418.26 84.2704 472.234 1.11134 224.734 0.0117781C-19.2501 -1.07219 -8.14666 74.4989 -199.88 100.652C-351.379 121.318 -618.225 105.654 -739.801 131.58C-859.482 157.101 -790.626 195.164 -797.171 228.022C-803.949 262.052 -835.339 295.761 -779.002 328.384C-713.587 366.263 -634.818 407.118 -448.452 429.954C-258.976 453.171 -6.19341 455.421 224.734 451.375Z" fill="url(#paint0_radial)"/>
<defs>
<radialGradient id="paint0_radial" cx="0" cy="0" r="1" gradientUnits="userSpaceOnUse" gradientTransform="translate(484.906 215.198) rotate(168.666) scale(1117.97 1146.25)">
<stop stop-color="#B2EA23"/>
<stop offset="1" stop-color="#65C10E"/>
</radialGradient>
</defs>
</svg>
