<svg width="1920" height="278" viewBox="0 0 1920 278" fill="none" xmlns="http://www.w3.org/2000/svg">
<path fill-rule="evenodd" clip-rule="evenodd" d="M1012.73 1.95152C1232 6.56504 1434.86 27.0652 1611.62 54.4415C1776.29 79.9468 1924.83 112.425 1988.24 153.04C2047.37 190.913 1916.29 230.918 1948.43 270.173C1990.03 320.996 2347.49 371.267 2200.92 412.844C2045.23 457.007 1657.54 392.993 1424.95 418.664C1206.26 442.802 1260.23 542.666 1012.73 543.987C768.75 545.289 779.853 454.536 588.12 423.129C436.621 398.313 169.775 417.123 48.1985 385.989C-71.4823 355.341 -2.62607 309.632 -9.17093 270.173C-15.9493 229.307 -47.3386 188.827 8.99804 149.65C74.413 104.161 153.182 55.0998 339.548 27.6762C529.024 -0.204975 781.806 -2.90736 1012.73 1.95152Z" fill="#C4C4C4"/>
<path fill-rule="evenodd" clip-rule="evenodd" d="M1012.73 1.95152C1232 6.56504 1434.86 27.0652 1611.62 54.4415C1776.29 79.9468 1924.83 112.425 1988.24 153.04C2047.37 190.913 1916.29 230.918 1948.43 270.173C1990.03 320.996 2347.49 371.267 2200.92 412.844C2045.23 457.007 1657.54 392.993 1424.95 418.664C1206.26 442.802 1260.23 542.666 1012.73 543.987C768.75 545.289 779.853 454.536 588.12 423.129C436.621 398.313 169.775 417.123 48.1985 385.989C-71.4823 355.341 -2.62607 309.632 -9.17093 270.173C-15.9493 229.307 -47.3386 188.827 8.99804 149.65C74.413 104.161 153.182 55.0998 339.548 27.6762C529.024 -0.204975 781.806 -2.90736 1012.73 1.95152Z" fill="url(#paint0_radial)"/>
<defs>
<radialGradient id="paint0_radial" cx="0" cy="0" r="1" gradientUnits="userSpaceOnUse" gradientTransform="translate(1272.91 285.573) rotate(-166.466) scale(1127.48 1364.91)">
<stop stop-color="#B2EA23"/>
<stop offset="1" stop-color="#65C10E"/>
</radialGradient>
</defs>
</svg>
