<svg width="1519" height="960" viewBox="0 0 1519 960" fill="none" xmlns="http://www.w3.org/2000/svg">
<path fill-rule="evenodd" clip-rule="evenodd" d="M587.477 -80.2554C754.449 -71.4014 908.929 -32.0591 1043.53 20.4791C1168.93 69.4269 1282.04 131.756 1330.33 209.701C1375.36 282.385 1275.54 359.157 1300.01 434.493C1331.7 532.028 1603.9 628.504 1492.28 708.295C1373.73 793.049 1078.5 670.199 901.384 719.465C734.848 765.788 775.95 957.439 587.477 959.973C401.682 962.472 410.138 788.308 264.132 728.033C148.765 680.407 -54.4399 716.507 -147.021 656.758C-238.158 597.94 -185.724 510.219 -190.708 434.493C-195.869 356.066 -219.773 278.379 -176.872 203.196C-127.058 115.897 -67.075 21.7421 74.8436 -30.8869C219.13 -84.3941 411.625 -89.5802 587.477 -80.2554Z" fill="#C4C4C4"/>
<path fill-rule="evenodd" clip-rule="evenodd" d="M587.477 -80.2554C754.449 -71.4014 908.929 -32.0591 1043.53 20.4791C1168.93 69.4269 1282.04 131.756 1330.33 209.701C1375.36 282.385 1275.54 359.157 1300.01 434.493C1331.7 532.028 1603.9 628.504 1492.28 708.295C1373.73 793.049 1078.5 670.199 901.384 719.465C734.848 765.788 775.95 957.439 587.477 959.973C401.682 962.472 410.138 788.308 264.132 728.033C148.765 680.407 -54.4399 716.507 -147.021 656.758C-238.158 597.94 -185.724 510.219 -190.708 434.493C-195.869 356.066 -219.773 278.379 -176.872 203.196C-127.058 115.897 -67.075 21.7421 74.8436 -30.8869C219.13 -84.3941 411.625 -89.5802 587.477 -80.2554Z" fill="url(#paint0_radial)"/>
<defs>
<radialGradient id="paint0_radial" cx="0" cy="0" r="1" gradientUnits="userSpaceOnUse" gradientTransform="translate(785.6 464.048) rotate(-148.758) scale(976.318 2303.53)">
<stop stop-color="#B2EA23"/>
<stop offset="1" stop-color="#65C10E"/>
</radialGradient>
</defs>
</svg>
