<svg width="918" height="1053" viewBox="0 0 918 1053" fill="none" xmlns="http://www.w3.org/2000/svg">
<path fill-rule="evenodd" clip-rule="evenodd" d="M998.099 1049.22C819.193 1040.29 653.673 1000.61 509.453 947.62C375.089 898.25 253.893 835.384 202.155 756.767C153.908 683.457 260.857 606.022 234.637 530.037C200.691 431.661 -90.9665 334.353 28.6247 253.875C155.657 168.39 471.984 292.299 661.757 242.609C840.195 195.886 796.156 2.58298 998.099 0.0268443C1197.17 -2.49291 1188.11 173.173 1344.55 233.966C1468.17 282.003 1685.89 245.593 1785.09 305.857C1882.74 365.181 1826.56 453.658 1831.9 530.037C1837.43 609.141 1863.04 687.497 1817.08 763.329C1763.7 851.38 1699.43 946.346 1547.37 999.429C1392.77 1053.4 1186.52 1058.63 998.099 1049.22Z" fill="#C4C4C4"/>
<path fill-rule="evenodd" clip-rule="evenodd" d="M998.099 1049.22C819.193 1040.29 653.673 1000.61 509.453 947.62C375.089 898.25 253.893 835.384 202.155 756.767C153.908 683.457 260.857 606.022 234.637 530.037C200.691 431.661 -90.9665 334.353 28.6247 253.875C155.657 168.39 471.984 292.299 661.757 242.609C840.195 195.886 796.156 2.58298 998.099 0.0268443C1197.17 -2.49291 1188.11 173.173 1344.55 233.966C1468.17 282.003 1685.89 245.593 1785.09 305.857C1882.74 365.181 1826.56 453.658 1831.9 530.037C1837.43 609.141 1863.04 687.497 1817.08 763.329C1763.7 851.38 1699.43 946.346 1547.37 999.429C1392.77 1053.4 1186.52 1058.63 998.099 1049.22Z" fill="url(#paint0_radial)"/>
<defs>
<radialGradient id="paint0_radial" cx="0" cy="0" r="1" gradientUnits="userSpaceOnUse" gradientTransform="translate(785.816 500.228) rotate(29.7281) scale(1029.95 2359.81)">
<stop stop-color="#B2EA23"/>
<stop offset="1" stop-color="#65C10E"/>
</radialGradient>
</defs>
</svg>
