<svg width="1002" height="1053" viewBox="0 0 1002 1053" fill="none" xmlns="http://www.w3.org/2000/svg">
<path fill-rule="evenodd" clip-rule="evenodd" d="M-77.8304 3.77721C115.725 12.7075 294.799 52.3889 450.83 105.38C596.196 154.75 727.316 217.616 783.291 296.233C835.488 369.544 719.782 446.978 748.149 522.963C784.875 621.339 1100.42 718.647 971.031 799.125C833.597 884.611 491.366 760.701 286.053 810.392C93.0035 857.114 140.649 1050.42 -77.8303 1052.97C-293.205 1055.49 -283.404 879.828 -452.655 819.034C-586.39 770.998 -821.947 807.408 -929.267 747.144C-1034.91 687.82 -974.132 599.343 -979.91 522.964C-985.893 443.86 -1013.6 365.504 -963.871 289.672C-906.127 201.62 -836.594 106.654 -672.08 53.5714C-504.822 -0.397118 -281.68 -5.62797 -77.8304 3.77721Z" fill="#C4C4C4"/>
<path fill-rule="evenodd" clip-rule="evenodd" d="M-77.8304 3.77721C115.725 12.7075 294.799 52.3889 450.83 105.38C596.196 154.75 727.316 217.616 783.291 296.233C835.488 369.544 719.782 446.978 748.149 522.963C784.875 621.339 1100.42 718.647 971.031 799.125C833.597 884.611 491.366 760.701 286.053 810.392C93.0035 857.114 140.649 1050.42 -77.8303 1052.97C-293.205 1055.49 -283.404 879.828 -452.655 819.034C-586.39 770.998 -821.947 807.408 -929.267 747.144C-1034.91 687.82 -974.132 599.343 -979.91 522.964C-985.893 443.86 -1013.6 365.504 -963.871 289.672C-906.127 201.62 -836.594 106.654 -672.08 53.5714C-504.822 -0.397118 -281.68 -5.62797 -77.8304 3.77721Z" fill="url(#paint0_radial)"/>
<defs>
<radialGradient id="paint0_radial" cx="0" cy="0" r="1" gradientUnits="userSpaceOnUse" gradientTransform="translate(151.835 552.773) rotate(-152.174) scale(1094.15 2403.24)">
<stop stop-color="#B2EA23"/>
<stop offset="1" stop-color="#65C10E"/>
</radialGradient>
</defs>
</svg>
