<svg width="375" height="448" viewBox="0 0 375 448" fill="none" xmlns="http://www.w3.org/2000/svg">
<path fill-rule="evenodd" clip-rule="evenodd" d="M85.0739 1.60683C143.674 5.40622 197.89 22.2887 245.129 44.8339C289.14 65.8383 328.837 92.5849 345.784 126.032C361.587 157.223 326.557 190.167 335.145 222.495C346.264 264.349 441.796 305.749 402.624 339.988C361.015 376.358 257.402 323.641 195.242 344.782C136.795 364.66 151.22 446.901 85.0739 447.989C19.8677 449.061 22.8352 374.324 -28.4069 348.459C-68.896 328.022 -140.212 343.512 -172.704 317.873C-204.69 292.633 -186.288 254.991 -188.037 222.495C-189.848 188.841 -198.237 155.504 -183.181 123.241C-165.698 85.7794 -144.647 45.3759 -94.8393 22.7918C-44.2007 -0.169151 23.3571 -2.39462 85.0739 1.60683Z" fill="#C4C4C4"/>
<path fill-rule="evenodd" clip-rule="evenodd" d="M85.0739 1.60683C143.674 5.40622 197.89 22.2887 245.129 44.8339C289.14 65.8383 328.837 92.5849 345.784 126.032C361.587 157.223 326.557 190.167 335.145 222.495C346.264 264.349 441.796 305.749 402.624 339.988C361.015 376.358 257.402 323.641 195.242 344.782C136.795 364.66 151.22 446.901 85.0739 447.989C19.8677 449.061 22.8352 374.324 -28.4069 348.459C-68.896 328.022 -140.212 343.512 -172.704 317.873C-204.69 292.633 -186.288 254.991 -188.037 222.495C-189.848 188.841 -198.237 155.504 -183.181 123.241C-165.698 85.7794 -144.647 45.3759 -94.8393 22.7918C-44.2007 -0.169151 23.3571 -2.39462 85.0739 1.60683Z" fill="url(#paint0_radial)"/>
<defs>
<radialGradient id="paint0_radial" cx="0" cy="0" r="1" gradientUnits="userSpaceOnUse" gradientTransform="translate(154.607 235.178) rotate(-143.435) scale(364.748 928.593)">
<stop stop-color="#B2EA23"/>
<stop offset="1" stop-color="#65C10E"/>
</radialGradient>
</defs>
</svg>
